<svg xmlns="http://www.w3.org/2000/svg" width="1024" height="1024" viewBox="0 0 1024 1024" fill="none">
  <rect width="1024" height="1024" rx="232" fill="#0B1220"/>

  <!-- Official Pi logo geometry from https://pi.dev/logo.svg, scaled for desktop app icon -->
  <g transform="translate(182 182) scale(0.825)">
    <path fill="#F8FAFC" fill-rule="evenodd" d="M165.29 165.29 H517.36 V400 H400 V517.36 H282.65 V634.72 H165.29 Z M282.65 282.65 V400 H400 V282.65 Z"/>
    <path fill="#F8FAFC" d="M517.36 400 H634.72 V634.72 H517.36 Z"/>
  </g>

  <!-- Pixel D badge (Desktop) -->
  <g transform="translate(698 698)">
    <rect width="188" height="188" rx="42" fill="#111827" stroke="#1F2937" stroke-width="8"/>
    <g fill="#93C5FD">
      <rect x="48" y="34" width="14" height="14" rx="2"/>
      <rect x="66" y="34" width="14" height="14" rx="2"/>
      <rect x="84" y="34" width="14" height="14" rx="2"/>

      <rect x="48" y="52" width="14" height="14" rx="2"/>
      <rect x="102" y="52" width="14" height="14" rx="2"/>

      <rect x="48" y="70" width="14" height="14" rx="2"/>
      <rect x="102" y="70" width="14" height="14" rx="2"/>

      <rect x="48" y="88" width="14" height="14" rx="2"/>
      <rect x="102" y="88" width="14" height="14" rx="2"/>

      <rect x="48" y="106" width="14" height="14" rx="2"/>
      <rect x="102" y="106" width="14" height="14" rx="2"/>

      <rect x="48" y="124" width="14" height="14" rx="2"/>
      <rect x="102" y="124" width="14" height="14" rx="2"/>

      <rect x="48" y="142" width="14" height="14" rx="2"/>
      <rect x="66" y="142" width="14" height="14" rx="2"/>
      <rect x="84" y="142" width="14" height="14" rx="2"/>
    </g>
  </g>
</svg>
